<svg width="16" height="16" viewBox="0 0 16 16" fill="none" xmlns="http://www.w3.org/2000/svg">
<rect x="1" y="1" width="14" height="14" rx="7" stroke="#B4BDCA" stroke-width="2"/>
<path d="M5.46875 12V4.72727H8.60795C9.14773 4.72727 9.62003 4.83381 10.0249 5.04688C10.4297 5.25994 10.7446 5.55942 10.9695 5.94531C11.1944 6.3312 11.3068 6.7822 11.3068 7.2983C11.3068 7.81913 11.1908 8.27012 10.9588 8.65128C10.7292 9.03243 10.406 9.32599 9.98935 9.53196C9.57505 9.73793 9.09091 9.84091 8.53693 9.84091H6.66193V8.30682H8.1392C8.37121 8.30682 8.56889 8.26657 8.73224 8.18608C8.89796 8.10322 9.02462 7.98603 9.11222 7.83452C9.20218 7.683 9.24716 7.50426 9.24716 7.2983C9.24716 7.08996 9.20218 6.91241 9.11222 6.76562C9.02462 6.61648 8.89796 6.50284 8.73224 6.42472C8.56889 6.34422 8.37121 6.30398 8.1392 6.30398H7.44318V12H5.46875Z" fill="white"/>
</svg>
